<?xml version="1.0" encoding="UTF-8" standalone="no"?>
<svg
   xmlns:dc="http://purl.org/dc/elements/1.1/"
   xmlns:cc="http://creativecommons.org/ns#"
   xmlns:rdf="http://www.w3.org/1999/02/22-rdf-syntax-ns#"
   xmlns:svg="http://www.w3.org/2000/svg"
   xmlns="http://www.w3.org/2000/svg"
   viewBox="0 0 916.35999 716.50665"

   height="43"
   width="55"
   xml:space="preserve"
   id="svg2"
   version="1.1"><metadata
     id="metadata8"><rdf:RDF><cc:Work
         rdf:about=""><dc:format>image/svg+xml</dc:format><dc:type
           rdf:resource="http://purl.org/dc/dcmitype/StillImage" /></cc:Work></rdf:RDF></metadata><defs
     id="defs6" /><g
     transform="matrix(1.3333333,0,0,-1.3333333,0,716.50667)"
     id="g10"><g
       transform="scale(0.1)"
       id="g12"><path
         id="path14"
         style="fill:#68686d;fill-opacity:1;fill-rule:nonzero;stroke:none"
         d="m 5728.16,2232.62 c 10.33,88.74 15.56,179.29 15.56,269.11 0,1269.54 -1032.85,2302.39 -2302.39,2302.39 -1269.55,0 -2302.39,-1032.85 -2302.39,-2302.39 0,-105.2 7.24,-208.73 20.97,-310.23 l 4562.96,-0.12 c 1.85,13.72 3.69,27.44 5.29,41.24" /><path
         id="path16"
         style="fill:none;stroke:#ffffff;stroke-width:24.85849953;stroke-linecap:butt;stroke-linejoin:miter;stroke-miterlimit:10;stroke-dasharray:none;stroke-opacity:1"
         d="m 5728.16,2232.62 c 10.33,88.74 15.56,179.29 15.56,269.11 0,1269.54 -1032.85,2302.39 -2302.39,2302.39 -1269.55,0 -2302.39,-1032.85 -2302.39,-2302.39 0,-105.2 7.24,-208.73 20.97,-310.23 l 4562.96,-0.12 c 1.85,13.72 3.69,27.44 5.29,41.24 z" /><path
         id="path18"
         style="fill:#68686d;fill-opacity:1;fill-rule:nonzero;stroke:none"
         d="m 3441.33,199.34 c 770.5,0 1460.24,379.949 1879.56,970.95 H 1563.93 C 1981.58,583.102 2667.48,199.34 3441.33,199.34" /><path
         id="path20"
         style="fill:none;stroke:#ffffff;stroke-width:24.85849953;stroke-linecap:butt;stroke-linejoin:miter;stroke-miterlimit:10;stroke-dasharray:none;stroke-opacity:1"
         d="m 3441.33,199.34 c 770.5,0 1460.24,379.949 1879.56,970.95 H 1563.93 C 1981.58,583.102 2667.48,199.34 3441.33,199.34 Z" /><path
         id="path22"
         style="fill:#6dc8f1;fill-opacity:1;fill-rule:nonzero;stroke:none"
         d="m 1462.21,985.32 c -26.64,34.52 -52.28,69.59 -76.65,104.83 h -84.08 z m 4019.52,104.83 c -26.2,-37.89 -53.61,-75.28 -81.94,-111.791 l 171.39,111.791 z M 1561.06,810.352 1113.78,1102.12 c -25.19,11.79 -41.68,29.68 -46.53,50.49 L 853.125,1806.67 H 176.879 l 491.43,-432.58 c 29.254,-25.71 39.035,-71.81 22.754,-107.21 L 481.137,810.352 Z m 4830.47,0 -209.92,456.528 c -16.28,35.4 -6.51,81.49 22.75,107.22 l 491.42,432.57 h -678.43 l -217.19,-658.11 c -5.75,-21.78 -23.92,-41.08 -48.53,-51.17 L 5311.61,810.352 Z M 1157.64,1183.98 c 3.68,-1.16 5.61,-1.26 6.15,-1.26 h 367.61 l 3.7,-5.32 c 435.36,-624.74 1147.97,-997.709 1906.23,-997.709 760.86,0 1474.33,372.969 1908.51,997.689 l 3.71,5.34 h 359.53 l 1.35,0.88 328.35,995.34 -301.76,0.01 2.56,19.25 c 1.42,10.69 2.85,21.39 4.1,32.14 10.41,89.54 15.69,180.86 15.69,271.4 0,1280.37 -1041.66,2322.04 -2322.04,2322.04 -1280.38,0 -2322.04,-1041.67 -2322.04,-2322.04 0,-102.57 6.91,-206.39 20.54,-308.6 l 1.88,-14.07 H 828.426 L 1153.33,1186.68 Z M 3433.58,12.4297 c -650.1,0 -1265.32,250.4413 -1732.99,705.3513 H 442.766 c -25.02,0 -46.45,11.051 -58.797,30.34 -12.348,19.27 -13.418,43.352 -2.934,66.07 l 225.352,490.129 c -0.051,0.38 -0.145,0.83 -0.25,1.19 L 49.0156,1795.9 c -32.0586,28.29 -23.9687,58.36 -20.7265,66.91 3.2382,8.55 17.125,36.45 59.7851,36.45 H 822.813 l -93.446,285.42 -0.125,0.55 c -5.148,22.43 -0.984,42.85 12.031,59.05 13.977,17.39 36.09,27.36 60.665,27.36 h 153.906 c -7.785,80.83 -11.574,156.25 -11.574,230.1 0,1372.6 1116.7,2489.29 2489.31,2489.29 1372.62,0 2489.32,-1116.69 2489.32,-2489.29 0,-73.76 -3.79,-149.18 -11.59,-230.1 h 159.56 c 24.98,0 47.16,-10.25 60.84,-28.11 12.4,-16.16 16.42,-36.88 11.04,-56.84 l -94.85,-287.43 h 736.68 c 42.66,0 56.56,-27.9 59.8,-36.45 3.24,-8.54 11.33,-38.61 -20.72,-66.9 l -557.13,-490.4 c -0.11,-0.36 -0.21,-0.81 -0.25,-1.19 l 225.35,-490.148 c 10.48,-22.699 9.42,-46.781 -2.93,-66.063 -12.35,-19.269 -33.78,-30.328 -58.8,-30.328 H 5166.89 C 4699.23,262.871 4083.9,12.4297 3433.58,12.4297" /><path
         id="path24"
         style="fill:#ffffff;fill-opacity:1;fill-rule:nonzero;stroke:none"
         d="m 1343.29,1077.73 h 35.76 c 10.12,-14.56 20.46,-29.08 30.99,-43.55 l -66.75,43.55 z m 4144.95,0 h 41.14 l -76.96,-50.2 c 12.16,16.61 24.11,33.36 35.82,50.2 z M 209.809,1794.24 h 634.308 l 211.153,-644.99 c 5.84,-24.15 24.37,-44.65 52.43,-58.01 L 1519.26,822.77 H 500.531 l 201.824,438.92 c 18.793,40.86 7.922,92.06 -25.847,121.74 l -466.699,410.81 z m 5602.361,-648.94 214.16,648.94 h 636.53 l -466.72,-410.82 c -33.76,-29.67 -44.62,-80.88 -25.83,-121.73 L 6372.13,822.77 H 5353.41 l 404.06,263.58 c 27.34,11.57 47.64,33.41 54.7,58.95 z m -4656.26,1021.34 -3.76,28.14 c -13.56,101.69 -20.44,204.97 -20.44,306.96 0,1273.52 1036.09,2309.6 2309.62,2309.6 1273.52,0 2309.61,-1036.08 2309.61,-2309.6 0,-90.07 -5.25,-180.9 -15.6,-269.96 -1.25,-10.72 -2.67,-21.37 -4.09,-32.03 l -0.68,-5.09 -3.73,-28.13 h 28.37 l 270.38,-0.01 -320.44,-971.37 h -345.11 -12.99 l -7.42,-10.67 C 5130.72,883.879 4849.39,634.07 4526.05,462.039 4194.14,285.461 3819.05,192.121 3441.33,192.121 c -378.14,0 -753.48,93.848 -1085.45,271.41 C 2034.49,635.43 1754.2,884.742 1545.3,1184.51 l -7.42,10.64 h -12.97 -361.06 c 0.04,0 -0.04,0.02 -0.24,0.07 l -318.036,971.43 281.936,-0.01 h 28.4 z m 2277.67,2836.82 c -1379.46,0 -2501.732,-1122.27 -2501.732,-2501.73 0,-70.08 3.39,-141.54 10.343,-217.66 H 801.938 c -28.356,0 -53.997,-11.66 -70.348,-31.99 -15.27,-19 -20.402,-43.72 -14.461,-69.62 l 0.254,-1.1 0.351,-1.08 87.93,-268.59 H 88.0742 c -50.6211,0 -67.457,-34.04 -71.4101,-44.48 -3.9532,-10.43 -13.90238,-47.07 24.1172,-80.62 L 591.547,1301.8 369.73,819.359 c -12.281,-26.609 -10.91,-55.027 3.774,-77.949 14.684,-22.918 39.926,-36.058 69.262,-36.058 H 1695.55 C 2165.1,250.402 2781.9,0 3433.58,0 4085.47,0 4702.38,250.402 5171.93,705.352 H 6429.9 c 29.33,0 54.58,13.14 69.26,36.058 14.68,22.922 16.05,51.34 3.76,77.981 l -221.8,482.409 550.74,484.77 c 38.04,33.57 28.09,70.21 24.14,80.64 -3.96,10.44 -20.81,44.48 -71.41,44.48 H 6065.1 l 89.25,270.44 0.22,0.66 0.18,0.66 c 6.39,23.72 1.59,48.38 -13.16,67.64 -16.06,20.96 -41.83,32.98 -70.72,32.98 h -145.91 c 6.97,76.17 10.37,147.63 10.37,217.66 0,1379.46 -1122.28,2501.73 -2501.75,2501.73 z M 1519.8,932.91 c -44.89,54.68 -87.55,111.25 -127.72,169.68 h -132.4 L 1519.8,932.91 m 3821.73,-7.398 271.45,177.078 H 5475.2 c -41.96,-61.05 -86.57,-120.129 -133.67,-177.078 M 461.738,797.91 H 1602.86 l -483.04,315.11 c -19.3,8.86 -36.21,23.17 -40.58,42.92 l -217.103,663.16 -718.192,-0.01 516.153,-454.33 c 25.293,-22.23 33.754,-62.06 19.672,-92.68 L 461.738,797.91 m 4808.062,0 h 1141.12 l -218.02,474.17 c -14.09,30.62 -5.62,70.45 19.67,92.68 l 516.15,454.33 -720.36,0.01 -220.01,-666.64 c -5.16,-19.51 -21.59,-35.76 -42.49,-44 L 5269.8,797.91 M 1127.51,2191.5 H 811.277 L 1143.57,1176.54 c 1.8,-1.14 4.74,-2.34 7.7,-3.43 l 0.09,0.14 0.89,-0.58 c 3.92,-1.35 8.09,-2.38 11.54,-2.38 h 361.12 C 1947.06,564.512 2648.62,167.262 3441.33,167.262 c 789.25,0 1494.9,393.218 1918.71,1003.028 h 356.14 c 0.37,0 0.57,0.18 0.92,0.21 l 4.21,2.75 0.84,-1.29 c 0.9,0.53 1.78,1.12 2,1.42 l 335.81,1018 h -304.75 c 1.66,12.49 3.36,24.97 4.82,37.53 10.46,89.98 15.77,181.77 15.77,272.83 0,1287.22 -1047.24,2334.46 -2334.47,2334.46 -1287.23,0 -2334.48,-1047.24 -2334.48,-2334.46 0,-105.18 7.12,-208.71 20.66,-310.24 m 2306.07,2787.11 c 1365.77,0 2476.89,-1111.12 2476.89,-2476.88 0,-81.92 -4.8,-162.69 -12.87,-242.52 h 173.27 c 21.1,0 39.68,-8.48 50.98,-23.24 10.02,-13.08 13.26,-29.85 8.89,-46.05 l -100.02,-303.09 h 753.87 c 33.78,0 44.92,-19.88 48.17,-28.43 3.24,-8.54 8,-30.82 -17.33,-53.17 l -558.14,-491.28 c -2.8,-2.46 -4.43,-10.22 -2.87,-13.59 l 225.92,-491.387 c 8.66,-18.762 7.91,-38.512 -2.11,-54.153 -10.02,-15.64 -27.64,-24.609 -48.33,-24.609 H 5161.83 C 4715.34,294.18 4105.52,24.8594 3433.58,24.8594 2761.71,24.8594 2152.09,294.23 1705.65,730.211 H 442.766 c -20.696,0 -38.313,8.969 -48.332,24.609 -10.016,15.641 -10.778,35.391 -2.118,54.153 l 225.926,491.387 c 1.559,3.37 -0.062,11.13 -2.875,13.59 L 57.2305,1805.23 c -25.3242,22.35 -20.5625,44.63 -17.3203,53.17 3.2382,8.55 14.3789,28.43 48.164,28.43 H 839.961 l -98.602,301.19 c -4.429,19.31 -0.597,35.79 9.602,48.48 11.605,14.43 30.187,22.71 50.977,22.71 h 167.621 c -8.067,79.83 -12.856,160.6 -12.856,242.52 0,1365.76 1111.117,2476.88 2476.877,2476.88" /><path
         id="path26"
         style="fill:none;stroke:#6dc8f1;stroke-width:24.85849953;stroke-linecap:butt;stroke-linejoin:miter;stroke-miterlimit:10;stroke-dasharray:none;stroke-opacity:1"
         d="M 5612.98,1102.59 5341.53,925.512 c 47.11,56.949 91.71,116.028 133.67,177.078 z m -4353.3,0 h 132.41 c 40.16,-58.43 82.82,-115 127.71,-169.68 z M 969.559,2259.21 H 801.938 c -20.79,0 -39.372,-8.28 -50.977,-22.71 -10.199,-12.69 -14.031,-29.17 -9.602,-48.48 l 98.602,-301.19 H 88.0742 c -33.7851,0 -44.9258,-19.88 -48.164,-28.43 -3.2422,-8.54 -8.0039,-30.82 17.3203,-53.17 L 615.367,1313.95 c 2.813,-2.46 4.434,-10.22 2.875,-13.59 L 392.316,808.973 c -8.66,-18.762 -7.898,-38.512 2.118,-54.153 10.019,-15.64 27.636,-24.609 48.332,-24.609 H 1705.65 m 3456.18,0 H 6429.9 c 20.69,0 38.31,8.969 48.33,24.609 10.02,15.641 10.77,35.391 2.11,54.153 l -225.92,491.387 c -1.56,3.37 0.07,11.13 2.87,13.59 l 558.14,491.28 c 25.33,22.35 20.57,44.63 17.33,53.17 -3.25,8.55 -14.39,28.43 -48.17,28.43 h -753.87 l 100.02,303.09 c 4.37,16.2 1.13,32.97 -8.89,46.05 -11.3,14.76 -29.88,23.24 -50.98,23.24 H 5897.6 m 917.83,-453.98 c 25.33,22.35 20.57,44.63 17.33,53.17 -3.25,8.55 -14.39,28.43 -48.17,28.43 h -753.87 l 100.02,303.09 c 4.37,16.2 1.13,32.97 -8.89,46.05 -11.3,14.76 -29.88,23.24 -50.98,23.24 H 5897.6 c 8.07,79.83 12.87,160.6 12.87,242.52 0,1365.76 -1111.12,2476.88 -2476.89,2476.88 -1365.76,0 -2476.877,-1111.12 -2476.877,-2476.88 0,-81.92 4.789,-162.69 12.856,-242.52 H 801.938 c -20.79,0 -39.372,-8.28 -50.977,-22.71 -10.199,-12.69 -14.031,-29.17 -9.602,-48.48 l 98.602,-301.19 H 88.0742 c -33.7851,0 -44.9258,-19.88 -48.164,-28.43 -3.2422,-8.54 -8.0039,-30.82 17.3203,-53.17 L 615.367,1313.95 c 2.813,-2.46 4.434,-10.22 2.875,-13.59 L 392.316,808.973 c -8.66,-18.762 -7.898,-38.512 2.118,-54.153 10.019,-15.64 27.636,-24.609 48.332,-24.609 H 1705.65 C 2152.09,294.23 2761.71,24.8594 3433.58,24.8594 c 671.95,0 1281.76,269.3206 1728.25,705.3516 H 6429.9 c 20.69,0 38.31,8.969 48.33,24.609 10.02,15.641 10.77,35.391 2.11,54.153 l -225.92,491.387 c -1.56,3.37 0.07,11.13 2.87,13.59 z" /><path
         id="path28"
         style="fill:none;stroke:#6dc8f1;stroke-width:74.57540131;stroke-linecap:butt;stroke-linejoin:miter;stroke-miterlimit:10;stroke-dasharray:none;stroke-opacity:1"
         d="M 5612.98,1102.59 5341.53,925.512 c 47.11,56.949 91.71,116.028 133.67,177.078 z m -4353.3,0 h 132.41 c 40.16,-58.43 82.82,-115 127.71,-169.68 z M 969.559,2259.21 H 801.938 c -20.79,0 -39.372,-8.28 -50.977,-22.71 -10.199,-12.69 -14.031,-29.17 -9.602,-48.48 l 98.602,-301.19 H 88.0742 c -33.7851,0 -44.9258,-19.88 -48.164,-28.43 -3.2422,-8.54 -8.0039,-30.82 17.3203,-53.17 L 615.367,1313.95 c 2.813,-2.46 4.434,-10.22 2.875,-13.59 L 392.316,808.973 c -8.66,-18.762 -7.898,-38.512 2.118,-54.153 10.019,-15.64 27.636,-24.609 48.332,-24.609 H 1741.44 m 3384.6,0 H 6429.9 c 20.69,0 38.31,8.969 48.33,24.609 10.02,15.641 10.77,35.391 2.11,54.153 l -225.92,491.387 c -1.56,3.37 0.07,11.13 2.87,13.59 l 558.14,491.28 c 25.33,22.35 20.57,44.63 17.33,53.17 -3.25,8.55 -14.39,28.43 -48.17,28.43 h -753.87 l 100.02,303.09 c 4.37,16.2 1.13,32.97 -8.89,46.05 -11.3,14.76 -29.88,23.24 -50.98,23.24 H 5897.6 m -4928.041,0 H 801.938 c -20.79,0 -39.372,-8.28 -50.977,-22.71 -10.199,-12.69 -14.031,-29.17 -9.602,-48.48 l 98.602,-301.19 H 88.0742 c -33.7851,0 -44.9258,-19.88 -48.164,-28.43 -3.2422,-8.54 -8.0039,-30.82 17.3203,-53.17 L 615.367,1313.95 c 2.813,-2.46 4.434,-10.22 2.875,-13.59 L 392.316,808.973 c -8.66,-18.762 -7.898,-38.512 2.118,-54.153 10.019,-15.64 27.636,-24.609 48.332,-24.609 H 1705.65 m 3456.18,0 H 6429.9 c 20.69,0 38.31,8.969 48.33,24.609 10.02,15.641 10.77,35.391 2.11,54.153 l -225.92,491.387 c -1.56,3.37 0.07,11.13 2.87,13.59 l 558.14,491.28 c 25.33,22.35 20.57,44.63 17.33,53.17 -3.25,8.55 -14.39,28.43 -48.17,28.43 h -753.87 l 100.02,303.09 c 4.37,16.2 1.13,32.97 -8.89,46.05 -11.3,14.76 -29.88,23.24 -50.98,23.24 H 5897.6" /><path
         id="path30"
         style="fill:#100f0d;fill-opacity:1;fill-rule:nonzero;stroke:none"
         d="M 1531.26,2054.38 V 1479 c 0,-53.28 22.04,-72.46 57.09,-72.46 35.06,0 57.09,19.18 57.09,72.46 v 575.38 h 104.17 v -567.93 c 0,-119.33 -56.09,-187.53 -164.26,-187.53 -108.17,0 -164.26,68.2 -164.26,187.53 v 567.93 h 110.17" /><path
         id="path32"
         style="fill:#100f0d;fill-opacity:1;fill-rule:nonzero;stroke:none"
         d="m 1966.94,1848.73 h -2 v -540.22 h -99.16 v 745.87 H 2004 l 111.18,-446.45 h 2 v 446.45 h 98.16 v -745.87 h -113.18 l -135.22,540.22" /><path
         id="path34"
         style="fill:#100f0d;fill-opacity:1;fill-rule:nonzero;stroke:none"
         d="m 2446.69,1947.83 v -532.76 h 62.1 c 35.05,0 56.08,19.17 56.08,72.45 v 387.85 c 0,53.28 -21.03,72.46 -56.08,72.46 z m -110.18,106.55 h 174.28 c 110.18,0 164.26,-65 164.26,-184.33 v -377.2 c 0,-119.34 -54.08,-184.34 -164.26,-184.34 h -174.28 v 745.87" /><path
         id="path36"
         style="fill:#100f0d;fill-opacity:1;fill-rule:nonzero;stroke:none"
         d="m 2897.39,1740.05 h 151.24 v -106.56 h -151.24 v -218.42 h 190.29 v -106.56 h -300.47 v 745.87 h 300.47 v -106.55 h -190.29 v -207.78" /><path
         id="path38"
         style="fill:#100f0d;fill-opacity:1;fill-rule:nonzero;stroke:none"
         d="m 3308.03,1947.83 v -229.09 h 43.07 c 41.06,0 66.1,19.18 66.1,78.84 v 73.53 c 0,53.27 -17.03,76.72 -56.09,76.72 z m 120.19,-639.32 c -6.01,19.18 -10.02,30.9 -10.02,91.63 v 117.21 c 0,69.27 -22.03,94.83 -72.11,94.83 h -38.06 v -303.67 h -110.17 v 745.87 h 166.26 c 114.17,0 163.26,-56.47 163.26,-171.55 v -58.6 c 0,-76.72 -23.04,-125.74 -72.12,-150.24 v -2.14 c 55.09,-24.5 73.11,-79.91 73.11,-157.69 v -115.08 c 0,-36.22 1.01,-62.86 12.02,-90.57 h -112.17" /><path
         id="path40"
         style="fill:#100f0d;fill-opacity:1;fill-rule:nonzero;stroke:none"
         d="m 3752.72,1947.83 v -532.76 h 62.1 c 35.06,0 56.09,19.17 56.09,72.45 v 387.85 c 0,53.28 -21.03,72.46 -56.09,72.46 z m -110.17,106.55 h 174.27 c 110.18,0 164.27,-65 164.27,-184.33 v -377.2 c 0,-119.34 -54.09,-184.34 -164.27,-184.34 h -174.27 v 745.87" /><path
         id="path42"
         style="fill:#100f0d;fill-opacity:1;fill-rule:nonzero;stroke:none"
         d="m 4194.4,1480.07 c 0,-53.29 22.04,-73.53 57.09,-73.53 35.06,0 57.09,20.24 57.09,73.53 v 402.76 c 0,53.27 -22.03,73.51 -57.09,73.51 -35.05,0 -57.09,-20.24 -57.09,-73.51 z m -110.18,395.3 c 0,119.33 59.1,187.53 167.27,187.53 108.17,0 167.26,-68.2 167.26,-187.53 v -387.85 c 0,-119.34 -59.09,-187.53 -167.26,-187.53 -108.17,0 -167.27,68.19 -167.27,187.53 v 387.85" /><path
         id="path44"
         style="fill:#100f0d;fill-opacity:1;fill-rule:nonzero;stroke:none"
         d="m 4697.19,1724.07 h 154.25 v -236.55 c 0,-119.34 -56.09,-187.53 -164.26,-187.53 -108.17,0 -164.27,68.19 -164.27,187.53 v 387.85 c 0,119.33 56.1,187.53 164.27,187.53 108.17,0 164.26,-68.2 164.26,-187.53 v -72.45 h -104.17 v 79.91 c 0,53.27 -22.03,73.51 -57.09,73.51 -35.05,0 -57.09,-20.24 -57.09,-73.51 v -402.76 c 0,-53.29 22.04,-72.47 57.09,-72.47 35.06,0 57.09,19.18 57.09,72.47 v 137.45 h -50.08 v 106.55" /><path
         id="path46"
         style="fill:#100f0d;fill-opacity:1;fill-rule:nonzero;stroke:none"
         d="m 4954.6,1941.43 v 112.95 h 106.18 v -101.23 l -48.08,-118.27 h -45.07 l 29.04,106.55 h -42.07" /><path
         id="path48"
         style="fill:#100f0d;fill-opacity:1;fill-rule:nonzero;stroke:none"
         d="m 5326.2,2062.9 c 107.16,0 162.25,-68.2 162.25,-187.53 v -23.44 h -104.17 v 30.9 c 0,53.27 -20.03,73.51 -55.09,73.51 -35.05,0 -55.08,-20.24 -55.08,-73.51 0,-54.35 22.04,-94.84 94.15,-161.96 92.14,-86.31 121.19,-148.11 121.19,-233.35 0,-119.34 -56.09,-187.53 -164.26,-187.53 -108.17,0 -164.26,68.19 -164.26,187.53 v 45.82 h 104.16 v -53.27 c 0,-53.29 22.04,-72.47 57.09,-72.47 35.06,0 57.1,19.18 57.1,72.47 0,54.33 -22.04,94.82 -94.15,161.95 -92.15,86.31 -121.19,148.1 -121.19,233.35 0,119.33 55.09,187.53 162.26,187.53" /><path
         id="path50"
         style="fill:#ffffff;fill-opacity:1;fill-rule:nonzero;stroke:none"
         d="m 2169.11,747.039 c -21.25,13.492 -31.81,20.391 -52.79,34.512 41.61,61.859 62.41,92.789 104.02,154.66 -26.01,17.488 -38.89,26.5 -64.4,45.039 10.4,14.32 15.61,21.48 26.01,35.81 68.55,-49.81 103.8,-72.798 175.79,-114.958 -8.94,-15.282 -13.41,-22.922 -22.35,-38.2 -26.8,15.688 -40.09,23.797 -66.45,40.528 -39.93,-62.95 -59.89,-94.43 -99.83,-157.391" /><path
         id="path52"
         style="fill:#ffffff;fill-opacity:1;fill-rule:nonzero;stroke:none"
         d="m 2615.14,668.75 c 19.79,-7.809 34.07,-2.77 40.06,13.09 5.98,15.851 -1.2,28.832 -20.52,36.449 -20.66,8.152 -30.95,12.371 -51.44,21.063 -8.32,-19.61 -12.48,-29.411 -20.8,-49.02 20.99,-8.91 31.54,-13.23 52.7,-21.582 z M 2510.43,567.77 c -22.25,9.441 -33.32,14.312 -55.38,24.359 38.21,83.973 57.32,125.961 95.53,209.941 39.38,-17.929 59.25,-26.359 99.3,-42.191 29.59,-11.688 44.93,-21.258 55.45,-35.719 10.82,-14.859 13.31,-34.058 6.49,-53.66 -9.2,-26.449 -28.21,-39.039 -58.99,-37.988 21.61,-15.723 26.15,-30.02 17.96,-59.403 -3.61,-12.66 -5.41,-18.988 -8.99,-31.66 -3.89,-14.758 -3.7,-20.34 0.48,-32.019 -22.71,7.84 -34.03,11.902 -56.58,20.332 -5.22,7.117 -5.89,11.09 -2.48,22.367 3.55,12.121 5.32,18.18 8.89,30.293 7.83,27.348 -1,43.867 -29.15,55.238 -14.62,5.91 -21.92,8.93 -36.46,15.11 -14.43,-34 -21.64,-51 -36.07,-85" /><path
         id="path54"
         style="fill:#ffffff;fill-opacity:1;fill-rule:nonzero;stroke:none"
         d="m 2962.4,427.711 c -23.83,4.82 -35.73,7.391 -59.46,12.828 20.66,89.91 30.99,134.883 51.65,224.801 21.4,-4.91 32.13,-7.231 53.63,-11.578 -18.33,-90.422 -27.49,-135.641 -45.82,-226.051" /><path
         id="path56"
         style="fill:#ffffff;fill-opacity:1;fill-rule:nonzero;stroke:none"
         d="m 3434.22,611.531 c 0.12,-62.379 0.18,-93.57 0.31,-155.949 0.05,-29.051 -8.6,-47.613 -28.76,-60.051 -20.44,-12.621 -48.35,-18.91 -79.08,-17.57 -31.12,1.359 -58.37,10.078 -77.64,24.441 -19,14.149 -26,33.399 -23.4,62.34 5.6,62.117 8.39,93.188 13.99,155.317 21.77,-1.957 32.67,-2.789 54.47,-4.188 -3.9,-60.871 -5.86,-91.308 -9.76,-152.18 -1,-15.531 1.32,-22.961 8.79,-29.652 7.93,-7.09 20.81,-11.57 35.48,-12.207 14.28,-0.621 27.5,2.707 36.02,9.078 8.03,6 10.99,13.199 11.36,28.77 1.45,60.972 2.17,91.461 3.62,152.441 21.84,-0.512 32.76,-0.629 54.6,-0.59" /><path
         id="path58"
         style="fill:#ffffff;fill-opacity:1;fill-rule:nonzero;stroke:none"
         d="m 3795.63,409.379 c -22.34,46.203 -33.14,69.422 -53.96,116.082 -4.1,9.891 -7.53,16.84 -9.53,21.371 -2.96,6.688 -3.44,8.25 -6.56,14.449 1.86,-8.129 2.66,-13.941 3.17,-17.718 1.35,-8.75 2.02,-13.122 3.37,-21.872 6.51,-47.699 9.77,-71.539 16.28,-119.23 -21.96,-2.992 -32.95,-4.359 -54.96,-6.832 -10.32,91.672 -15.49,137.523 -25.81,229.203 30.58,3.43 45.84,5.43 76.31,9.969 19.41,-45.91 29.46,-68.77 50.24,-114.281 7.87,-16.93 15.28,-34.981 20.93,-49.45 0.41,4.629 0.39,7.09 0.33,7.43 0.71,6.152 1.05,9.23 1.74,15.379 0.08,4.23 0.67,9.672 1.18,16.012 0.6,7.41 1.31,14.968 1.19,15.64 4.89,49.598 6.98,74.391 10.44,123.918 30.01,5.75 44.97,8.891 74.81,15.723 20.62,-89.922 30.94,-134.891 51.56,-224.813 -21.68,-4.968 -32.55,-7.32 -54.32,-11.769 -9.64,47.16 -14.47,70.742 -24.12,117.89 -1.63,8.711 -2.44,13.059 -4.07,21.762 -0.9,4.41 -1.94,9.481 -2.85,17.77 -1.3,-14.383 -2.09,-24.063 -2.59,-27.34 -1.03,-6.551 -1.28,-11.192 -1.59,-11.602 -4.07,-51.019 -6.49,-76.558 -12.11,-127.648 -23.59,-4.32 -35.41,-6.332 -59.08,-10.043" /><path
         id="path60"
         style="fill:#ffffff;fill-opacity:1;fill-rule:nonzero;stroke:none"
         d="m 4264.28,665.301 c 21.29,8.578 29.49,25.25 21.81,43.418 -7.8,18.472 -24.91,23.933 -45.6,15.594 -16.54,-6.672 -24.84,-9.922 -41.48,-16.231 9.03,-23.801 13.54,-35.703 22.57,-59.492 17.13,6.5 25.67,9.84 42.7,16.711 z m 0.84,-131.5 c -22.97,-8.711 -34.5,-12.922 -57.65,-21.012 -30.47,87.082 -45.7,130.633 -76.17,217.711 36.47,12.762 54.6,19.57 90.59,34.039 31.26,12.563 49.31,15.59 69.28,10 21.45,-5.988 39.22,-21.098 49.52,-43.758 8.73,-19.211 9.62,-39 1.51,-57.711 -8.52,-19.648 -24.62,-33.859 -52.91,-45.398 -20.73,-8.453 -31.13,-12.551 -52.01,-20.473 11.14,-29.359 16.71,-44.039 27.84,-73.398" /><path
         id="path62"
         style="fill:#ffffff;fill-opacity:1;fill-rule:nonzero;stroke:none"
         d="m 4623.02,821.93 c 21.08,-33.801 31.62,-50.7 52.69,-84.5 -21.32,-13.309 -32.05,-19.809 -53.64,-32.5 -46.72,79.562 -70.08,119.34 -116.79,198.89 19.47,11.45 29.15,17.309 48.39,29.321 18.37,-29.461 27.56,-44.192 45.93,-73.649 32.71,20.41 48.9,31.008 80.91,52.977 -19.65,28.633 -29.47,42.941 -49.11,71.57 18.83,12.93 28.18,19.531 46.74,33.021 54.22,-74.638 81.34,-111.958 135.57,-186.599 -20.58,-14.949 -30.95,-22.27 -51.82,-36.602 -22.54,32.852 -33.81,49.27 -56.34,82.11 -32.65,-22.406 -49.17,-33.219 -82.53,-54.039" /><path
         id="path64"
         style="fill:#6dc8f1;fill-opacity:1;fill-rule:evenodd;stroke:none"
         d="m 2595.09,2405.19 1091.39,1496.95 c 105.64,-62.7 421.84,-267.67 661.56,-602.62 32.82,-45.86 64.36,-102.55 100.88,-168.18 245.94,-442.07 503.36,-634.63 728.3,-730.22 l -2582.13,4.07" /><path
         id="path66"
         style="fill:#231f20;fill-opacity:1;fill-rule:nonzero;stroke:none"
         d="m 3672.87,3965.5 -1172.71,-1608.48 3026.8,-4.78 c -818.53,162.97 -958.85,722.82 -1139.62,975.41 -301.29,420.97 -714.47,637.85 -714.47,637.85 z m 26.41,-127.83 c 127.05,-79.9 398.72,-271.81 609.47,-566.27 31.22,-43.63 62.14,-99.21 97.94,-163.56 110.07,-197.84 259.54,-466.48 581.66,-658.1 l -2298.33,3.63 1009.26,1384.3" /><path
         id="path68"
         style="fill:#ffffff;fill-opacity:1;fill-rule:evenodd;stroke:none"
         d="m 2426.65,3464.7 c -461.36,-232.86 -706.45,-179.57 -729.46,67.13 -0.08,0.16 -0.15,0.31 -0.23,0.47 -4.33,3.95 -8.47,7.97 -12.42,12.05 -89.19,92.31 -15.18,247.97 112.55,235.3 0.66,-0.06 1.32,-0.13 1.98,-0.2 v 0 l 427.08,179.91 c 0.15,0.14 0.26,0.27 0.41,0.41 56.27,151.08 350.29,326.32 508.59,339.01 0.27,0.35 0.39,0.52 0.65,0.87 -32.04,173.96 119.29,338.51 119.86,338.57 134.52,-181.69 299.34,-351.61 400.82,-374.18 0.05,-0.02 0.11,-0.04 0.16,-0.06 625.89,-324.3 683.87,-759.63 374.86,-1179.42 -235.95,-320.54 -652.73,-320.06 -1136.93,-721.95 -0.55,0.21 -0.7,0.27 -1.24,0.47 -45.39,260.22 31.33,334.73 187.2,554.95 99.89,141.13 -21.06,265.81 -139.33,233.84 -228.37,-61.73 -554.9,-137.1 -619.53,29.41 0.24,0.42 0.36,0.64 0.6,1.06 293.13,50.43 463.61,115.92 540.97,194.78 49.71,50.66 17.42,114.84 -36.59,87.58" /><path
         id="path70"
         style="fill:none;stroke:#231f20;stroke-width:96.64849854;stroke-linecap:butt;stroke-linejoin:miter;stroke-miterlimit:10;stroke-dasharray:none;stroke-opacity:1"
         d="m 2426.65,3464.7 c -461.36,-232.86 -706.45,-179.57 -729.46,67.13 -0.08,0.16 -0.15,0.31 -0.23,0.47 -4.33,3.95 -8.47,7.97 -12.42,12.05 -89.19,92.31 -15.18,247.97 112.55,235.3 0.66,-0.06 1.32,-0.13 1.98,-0.2 v 0 l 427.08,179.91 c 0.15,0.14 0.26,0.27 0.41,0.41 56.27,151.08 350.29,326.32 508.59,339.01 0.27,0.35 0.39,0.52 0.65,0.87 -32.04,173.96 119.29,338.51 119.86,338.57 134.52,-181.69 299.34,-351.61 400.82,-374.18 0.05,-0.02 0.11,-0.04 0.16,-0.06 625.89,-324.3 683.87,-759.63 374.86,-1179.42 -235.95,-320.54 -652.73,-320.06 -1136.93,-721.95 -0.55,0.21 -0.7,0.27 -1.24,0.47 -45.39,260.22 31.33,334.73 187.2,554.95 99.89,141.13 -21.06,265.81 -139.33,233.84 -228.37,-61.73 -554.9,-137.1 -619.53,29.41 0.24,0.42 0.36,0.64 0.6,1.06 293.13,50.43 463.61,115.92 540.97,194.78 49.71,50.66 17.42,114.84 -36.59,87.58 z" /><path
         id="path72"
         style="fill:#6dc8f1;fill-opacity:1;fill-rule:evenodd;stroke:none"
         d="m 2669.32,2429.03 c 0,-58.25 -59.89,-105.47 -133.77,-105.47 -73.88,0 -133.78,47.22 -133.78,105.47 0,58.25 59.9,105.47 133.78,105.47 73.88,0 133.77,-47.22 133.77,-105.47" /><path
         id="path74"
         style="fill:none;stroke:#231f20;stroke-width:96.44020081;stroke-linecap:butt;stroke-linejoin:miter;stroke-miterlimit:10;stroke-dasharray:none;stroke-opacity:1"
         d="m 2669.32,2429.03 c 0,-58.25 -59.89,-105.47 -133.77,-105.47 -73.88,0 -133.78,47.22 -133.78,105.47 0,58.25 59.9,105.47 133.78,105.47 73.88,0 133.77,-47.22 133.77,-105.47 z" /><path
         id="path76"
         style="fill:#6dc8f1;fill-opacity:1;fill-rule:nonzero;stroke:none"
         d="m 3856.87,816.52 -24.46,55.64 -54.69,8.922 39.57,43.309 -9.34,61.148 48.92,-28.867 48.92,28.867 -9.34,-61.148 39.58,-43.309 -54.7,-8.922 -24.46,-55.64" /><path
         id="path78"
         style="fill:#6dc8f1;fill-opacity:1;fill-rule:nonzero;stroke:none"
         d="m 3540.24,816.52 -24.46,55.64 -54.7,8.922 39.58,43.309 -9.34,61.148 48.92,-28.867 48.92,28.867 -9.34,-61.148 39.58,-43.309 -54.7,-8.922 -24.46,-55.64" /><path
         id="path80"
         style="fill:#6dc8f1;fill-opacity:1;fill-rule:nonzero;stroke:none"
         d="m 3223.61,816.52 -24.46,55.64 -54.7,8.922 39.58,43.309 -9.34,61.148 48.92,-28.867 48.92,28.867 -9.34,-61.148 39.58,-43.309 -54.7,-8.922 -24.46,-55.64" /><path
         id="path82"
         style="fill:#6dc8f1;fill-opacity:1;fill-rule:nonzero;stroke:none"
         d="m 2906.98,816.52 -24.46,55.64 -54.7,8.922 39.58,43.309 -9.34,61.148 48.92,-28.867 48.92,28.867 -9.34,-61.148 39.58,-43.309 -54.7,-8.922 -24.46,-55.64" /><path
         id="path84"
         style="fill:#100f0d;fill-opacity:1;fill-rule:nonzero;stroke:none"
         d="m 688.445,2856.28 c 1.813,13.48 0.942,19.66 -3.007,25.64 -4.247,6.32 -13.219,10.4 -24.907,11.97 -11.355,1.53 -20.082,-0.16 -25.851,-5.13 -5.813,-5.3 -7.864,-10.46 -9.688,-23.95 l -7.644,-56.8 63.449,-8.53 z m 130.598,-75.4 -6.344,-47.07 -243.433,32.76 16.523,122.68 c 2.621,19.46 9.906,33.19 22.656,42.01 13.5,9.36 32.047,13.25 51.41,10.65 29.723,-4 47.692,-19.52 54.911,-46.68 17.285,27.37 20.8,28.18 92.761,19.78 10.684,-1.44 16.071,0.71 21.383,7.34 l 9.02,-1.21 -6.809,-50.52 c -12.445,-4.07 -19.629,-4.39 -42.664,-1.3 -3.68,0.51 -9.687,1.32 -15.988,2.49 l -10.02,1.34 c -20.039,2.7 -29.902,-4.93 -32.644,-25.32 l -7.266,-53.97 96.504,-12.98" /><path
         id="path86"
         style="fill:#100f0d;fill-opacity:1;fill-rule:nonzero;stroke:none"
         d="m 822.18,3050.23 28.578,121.81 40.98,-9.62 -39.414,-168.07 -239.051,56.12 38.118,162.51 40.996,-9.63 -27.278,-116.24 54.11,-12.71 25.242,107.63 40.996,-9.63 -25.254,-107.63 61.977,-14.54" /><path
         id="path88"
         style="fill:#100f0d;fill-opacity:1;fill-rule:nonzero;stroke:none"
         d="m 943.398,3325.92 -14.96,-45.09 -193.086,64.11 -22.043,-66.44 -39.961,13.26 58.234,175.56 39.961,-13.27 -21.238,-64.02 193.093,-64.11" /><path
         id="path90"
         style="fill:#100f0d;fill-opacity:1;fill-rule:nonzero;stroke:none"
         d="m 901.367,3600.07 c 5.449,12.49 6.317,18.66 4.153,25.49 -2.348,7.25 -9.848,13.63 -20.649,18.35 -10.488,4.6 -19.351,5.35 -26.258,2.15 -7.043,-3.49 -10.429,-7.89 -15.879,-20.36 l -22.949,-52.51 58.633,-25.62 z m 104.813,-108.34 -19.024,-43.54 -224.968,98.34 49.574,113.44 c 7.867,18 18.633,29.19 33.308,34.17 15.543,5.29 34.442,3.95 52.336,-3.86 27.465,-12.01 40.481,-31.87 39.949,-59.97 24.145,21.59 27.731,21.4 94.595,-6.45 9.87,-4.31 15.64,-3.72 22.57,1.21 l 8.33,-3.65 -20.41,-46.72 c -13.08,-0.49 -20.07,1.18 -41.37,10.48 -3.394,1.48 -8.945,3.91 -14.679,6.76 l -9.258,4.05 c -18.52,8.1 -30.094,3.48 -38.336,-15.38 l -21.805,-49.91 89.188,-38.97" /><path
         id="path92"
         style="fill:#100f0d;fill-opacity:1;fill-rule:nonzero;stroke:none"
         d="m 977.656,3859.65 69.024,-73.22 29.44,52.48 z m 99.254,-105.42 35.61,-37.78 -23.71,-42.26 -174.099,191.73 25.723,45.84 253.276,-50.59 -23.87,-42.53 -50.63,10.98 -42.3,-75.39" /><path
         id="path94"
         style="fill:#100f0d;fill-opacity:1;fill-rule:nonzero;stroke:none"
         d="m 1255.17,3952.71 -26.2,-39.64 -204.82,135.51 26.21,39.61 204.81,-135.48" /><path
         id="path96"
         style="fill:#100f0d;fill-opacity:1;fill-rule:nonzero;stroke:none"
         d="m 1193.83,4160.03 134.39,-103.76 -29.02,-37.6 -194.39,150.07 29.8,38.61 188.17,-29.67 -132.25,102.11 29.02,37.6 194.38,-150.07 -29.02,-37.61 -191.08,30.32" /><path
         id="path98"
         style="fill:#100f0d;fill-opacity:1;fill-rule:nonzero;stroke:none"
         d="m 1496.2,4259.54 -31.69,-35.4 -183.01,163.8 31.69,35.4 183.01,-163.8" /><path
         id="path100"
         style="fill:#100f0d;fill-opacity:1;fill-rule:nonzero;stroke:none"
         d="m 1465.62,4473.46 117.87,-122.18 -34.18,-32.97 -170.48,176.73 35.08,33.85 181.84,-56.71 -115.99,120.25 34.18,32.97 170.47,-176.74 -34.18,-32.97 -184.61,57.77" /><path
         id="path102"
         style="fill:#100f0d;fill-opacity:1;fill-rule:nonzero;stroke:none"
         d="m 1903.63,4625 -22.44,-17.56 -24.42,21.94 c 3.06,-32.69 -6.12,-54.86 -30.56,-73.99 -49.12,-38.45 -118.45,-23.87 -164.34,34.76 -47.13,60.23 -43.66,129.27 8.7,170.27 43.88,34.35 93.82,33.24 129.66,-3.3 l -35.15,-27.54 c -11.14,7.56 -17.41,9.91 -26.38,10.59 -14.25,1.24 -28.34,-3.36 -41.3,-13.51 -31.91,-25 -31.14,-65.03 1.46,-106.69 31.14,-39.79 74.59,-51.13 105.02,-27.3 14.2,11.13 22.77,28.96 22.61,47.67 0.09,11.18 -2.61,19.77 -10.12,31.43 l -41.39,-32.41 -25.96,33.16 72.8,57 81.81,-104.52" /><path
         id="path104"
         style="fill:#100f0d;fill-opacity:1;fill-rule:nonzero;stroke:none"
         d="m 2010.47,4696.87 -39.58,-26.27 -27.2,40.98 39.58,26.27 27.2,-40.98" /><path
         id="path106"
         style="fill:#100f0d;fill-opacity:1;fill-rule:nonzero;stroke:none"
         d="m 2220.41,4976.7 c 12.17,6.09 16.8,10.28 19.5,16.92 2.83,7.07 1.16,16.78 -4.13,27.33 -5.12,10.24 -11.45,16.49 -18.8,18.46 -7.65,1.82 -13.07,0.62 -25.24,-5.48 l -51.25,-25.67 28.67,-57.24 z m 11.21,-150.39 -42.47,-21.27 -109.99,219.6 110.72,55.45 c 17.55,8.8 32.99,10.49 47.46,4.94 15.34,-5.88 29,-19.01 37.75,-36.48 13.42,-26.82 10.72,-50.4 -7.67,-71.66 32.37,1.13 35.01,-1.32 68.58,-65.51 4.83,-9.65 9.64,-12.89 18.11,-13.54 l 4.08,-8.13 -45.58,-22.84 c -10.38,8 -14.69,13.75 -25.1,34.54 -1.66,3.31 -4.37,8.73 -6.95,14.6 l -4.53,9.03 c -9.06,18.07 -20.9,21.93 -39.31,12.72 l -48.7,-24.4 43.6,-87.05" /><path
         id="path108"
         style="fill:#100f0d;fill-opacity:1;fill-rule:nonzero;stroke:none"
         d="m 2456.17,4975.42 116.71,44.94 15.15,-39.29 -161.05,-62.01 -88.28,229.15 155.72,59.97 15.14,-39.3 -111.4,-42.9 19.98,-51.86 103.13,39.71 15.14,-39.3 -103.13,-39.7 22.89,-59.41" /><path
         id="path110"
         style="fill:#100f0d;fill-opacity:1;fill-rule:nonzero;stroke:none"
         d="m 2671.08,5123.51 29.91,-107.41 -45.75,-12.74 -65.87,236.57 45.75,12.74 24.67,-88.6 87.85,24.46 -24.67,88.6 46.06,12.82 65.87,-236.57 -45.76,-12.74 -29.9,107.42 -88.16,-24.55" /><path
         id="path112"
         style="fill:#100f0d;fill-opacity:1;fill-rule:nonzero;stroke:none"
         d="m 2928.79,5197.39 c 8.1,-51.24 38.07,-80.6 76.23,-74.57 37.53,5.92 57.61,43.2 49.72,93.09 -8.31,52.57 -37.97,81.98 -76.44,75.9 -38.15,-6.02 -57.61,-43.19 -49.51,-94.42 z m 125.98,115.71 c 23.95,-19.74 40.95,-52.17 46.94,-90.1 5.41,-34.27 -1.21,-71.45 -17.39,-96.86 -16.13,-25.74 -40.04,-40.76 -72.57,-45.91 -32.53,-5.14 -59.92,1.79 -83.2,21.3 -23.96,19.74 -40.95,52.19 -46.68,88.44 -5.73,36.26 0.48,72.03 17.13,98.52 15.87,25.35 40.35,40.81 72.26,45.86 33.15,5.23 59.86,-1.46 83.51,-21.25" /><path
         id="path114"
         style="fill:#100f0d;fill-opacity:1;fill-rule:nonzero;stroke:none"
         d="m 3235.1,5117.65 -47.42,-2.96 -15.29,245.08 70.81,4.43 53.89,-192.37 28.29,197.52 71.44,4.47 15.3,-245.08 -47.42,-2.97 -11.92,190.96 -28.86,-193.51 -47.41,-2.97 -53.33,188.36 11.92,-190.96" /><path
         id="path116"
         style="fill:#100f0d;fill-opacity:1;fill-rule:nonzero;stroke:none"
         d="m 3534.24,5125.99 -47.5,0.83 4.27,245.57 47.5,-0.83 -4.27,-245.57" /><path
         id="path118"
         style="fill:#100f0d;fill-opacity:1;fill-rule:nonzero;stroke:none"
         d="m 3676.13,5288.95 -15.49,-169.07 -47.31,4.35 22.41,244.56 48.56,-4.47 75.89,-174.77 15.24,166.4 47.3,-4.35 -22.39,-244.56 -47.31,4.34 -76.9,177.57" /><path
         id="path120"
         style="fill:#100f0d;fill-opacity:1;fill-rule:nonzero;stroke:none"
         d="m 4076.97,5056.05 -27.97,5.54 0.69,32.83 c -22.76,-23.65 -45.56,-31.15 -75.99,-25.11 -61.21,12.12 -95.42,74.17 -80.96,147.19 14.84,75 69.4,117.39 134.64,104.48 54.67,-10.84 86.42,-49.4 82.15,-100.4 l -43.81,8.67 c -1.56,13.37 -3.86,19.65 -9.2,26.89 -8.36,11.62 -21.05,19.28 -37.2,22.48 -39.77,7.88 -69.59,-18.82 -79.85,-70.69 -9.81,-49.56 9.98,-89.88 47.88,-97.39 17.7,-3.5 36.79,1.64 50.86,13.97 8.53,7.22 13.27,14.87 17.2,28.17 l -51.57,10.22 8.17,41.3 90.71,-17.97 -25.75,-130.18" /><path
         id="path122"
         style="fill:#100f0d;fill-opacity:1;fill-rule:nonzero;stroke:none"
         d="m 4201.09,5022.07 -45.74,12.84 13.29,47.36 45.74,-12.85 -13.29,-47.35" /><path
         id="path124"
         style="fill:#100f0d;fill-opacity:1;fill-rule:nonzero;stroke:none"
         d="m 4550.23,5045.66 c 12.58,-5.24 18.78,-6 25.55,-3.73 7.2,2.48 13.47,10.08 18,20.97 4.42,10.56 5.03,19.44 1.72,26.3 -3.61,6.98 -8.06,10.29 -20.62,15.52 l -52.9,22.05 -24.63,-59.08 z m -106.56,-106.71 -43.83,18.27 94.52,226.68 114.26,-47.61 c 18.11,-7.56 29.48,-18.14 34.71,-32.72 5.57,-15.46 4.53,-34.37 -2.98,-52.41 -11.55,-27.67 -31.18,-41.02 -59.28,-41 21.98,-23.75 21.85,-27.35 -4.86,-94.68 -4.15,-9.96 -3.46,-15.72 1.58,-22.56 l -3.5,-8.39 -47.05,19.6 c -0.72,13.07 0.83,20.09 9.79,41.55 1.41,3.42 3.75,9.02 6.51,14.8 l 3.89,9.32 c 7.78,18.66 2.96,30.15 -16.03,38.08 l -50.26,20.94 -37.47,-89.87" /><path
         id="path126"
         style="fill:#100f0d;fill-opacity:1;fill-rule:nonzero;stroke:none"
         d="m 4703.16,4866.44 110.34,-58.91 -19.83,-37.14 -152.25,81.27 115.7,216.61 147.21,-78.59 -19.83,-37.14 -105.32,56.22 -26.19,-49.03 97.49,-52.03 -19.83,-37.16 -97.49,52.05 -30,-56.15" /><path
         id="path128"
         style="fill:#100f0d;fill-opacity:1;fill-rule:nonzero;stroke:none"
         d="m 4906.17,4699.66 69.93,247.87 39.94,-26.28 -58.83,-182.62 143.73,126.76 39.93,-26.28 -201.12,-161.56 -33.58,22.11" /><path
         id="path130"
         style="fill:#100f0d;fill-opacity:1;fill-rule:nonzero;stroke:none"
         d="m 5093.06,4566.96 -37.77,28.82 148.89,195.3 37.79,-28.81 -148.91,-195.31" /><path
         id="path132"
         style="fill:#100f0d;fill-opacity:1;fill-rule:nonzero;stroke:none"
         d="m 5201.87,4477.72 103.46,235.89 35.91,-31.54 -83.43,-172.79 159.8,105.73 35.92,-31.55 -221.45,-132.26 -30.21,26.52" /><path
         id="path134"
         style="fill:#100f0d;fill-opacity:1;fill-rule:nonzero;stroke:none"
         d="m 5368.42,4320.81 -33.44,33.75 174.4,172.88 33.43,-33.75 -174.39,-172.88" /><path
         id="path136"
         style="fill:#100f0d;fill-opacity:1;fill-rule:nonzero;stroke:none"
         d="m 5583.8,4338.65 -129.03,-110.4 -30.87,36.1 186.63,159.68 31.7,-37.07 -67.51,-178.18 126.98,108.63 30.88,-36.1 -186.64,-159.67 -30.87,36.1 68.73,180.91" /><path
         id="path138"
         style="fill:#100f0d;fill-opacity:1;fill-rule:nonzero;stroke:none"
         d="m 5708.69,3892.39 -16.19,23.45 23.38,23.07 c -32.8,-1.11 -54.38,9.38 -72,34.92 -35.44,51.34 -16.7,119.67 44.58,161.98 62.94,43.46 131.63,35.88 169.4,-18.83 31.66,-45.86 27.53,-95.65 -11.09,-129.24 l -25.36,36.74 c 8.19,10.66 10.93,16.78 12.15,25.69 2.1,14.15 -1.65,28.5 -11.01,42.04 -23.02,33.35 -63.02,34.97 -106.56,4.9 -41.58,-28.71 -55.51,-71.42 -33.56,-103.2 10.25,-14.86 27.52,-24.47 46.2,-25.42 11.17,-0.75 19.9,1.43 31.98,8.25 l -29.85,43.24 34.65,23.93 52.52,-76.09 -109.24,-75.43" /><path
         id="path140"
         style="fill:#100f0d;fill-opacity:1;fill-rule:nonzero;stroke:none"
         d="m 5932.86,3722 -100.26,-48.81 -20.8,42.7 220.83,107.49 20.8,-42.7 -82.69,-40.25 39.94,-81.98 82.69,40.26 20.94,-42.97 -220.83,-107.51 -20.8,42.71 100.26,48.8 -40.08,82.26" /><path
         id="path142"
         style="fill:#100f0d;fill-opacity:1;fill-rule:nonzero;stroke:none"
         d="m 6051,3482.03 c -48.74,-17.78 -71.81,-52.82 -58.56,-89.11 13.03,-35.71 53.45,-48.27 100.92,-30.95 49.99,18.24 73.18,52.98 59.82,89.58 -13.24,36.28 -53.46,48.25 -102.18,30.48 z m 137.75,-101.44 c -14.77,-27.3 -43.35,-50.2 -79.42,-63.35 -32.6,-11.89 -70.37,-12.53 -98.41,-1.52 -28.35,10.9 -47.69,31.48 -58.98,62.42 -11.29,30.94 -9.76,59.15 4.93,85.73 14.77,27.3 43.35,50.2 77.84,62.78 34.48,12.58 70.78,13.35 99.99,2.09 27.93,-10.71 47.8,-31.77 58.88,-62.11 11.5,-31.55 10.07,-59.04 -4.83,-86.04" /><path
         id="path144"
         style="fill:#100f0d;fill-opacity:1;fill-rule:nonzero;stroke:none"
         d="m 6165.35,3151.06 c 6.28,-24.55 20.61,-32.97 45.09,-26.71 24.14,6.19 32.66,20.46 26.37,45 l -11,42.95 -71.46,-18.3 z m -136.65,10.77 -11.77,46.02 237.89,60.91 25.3,-98.78 c 11.94,-46.63 -7.64,-78.77 -55.28,-90.97 -48.3,-12.36 -86.06,6.07 -96.59,47.18 l -14.69,57.37 -84.86,-21.73" /><path
         id="path146"
         style="fill:#100f0d;fill-opacity:1;fill-rule:nonzero;stroke:none"
         d="m 6122.92,2931.18 19.53,-123.56 -41.59,-6.56 -26.93,170.47 242.52,38.33 26.04,-164.83 -41.58,-6.57 -18.63,117.91 -54.89,-8.68 17.24,-109.16 -41.58,-6.56 -17.25,109.16 -62.88,-9.95" /><path
         id="path148"
         style="fill:#100f0d;fill-opacity:1;fill-rule:nonzero;stroke:none"
         d="m 6112.24,2682.69 -4.34,47.29 48.97,4.49 4.34,-47.29 -48.97,-4.49" /><path
         id="path150"
         style="fill:none;stroke:#6dc8f1;stroke-width:74.57540131;stroke-linecap:butt;stroke-linejoin:miter;stroke-miterlimit:10;stroke-dasharray:none;stroke-opacity:1"
         d="M 5845.71,2229.51 H 1060.46" /><path
         id="path152"
         style="fill:none;stroke:#6dc8f1;stroke-width:74.57540131;stroke-linecap:butt;stroke-linejoin:miter;stroke-miterlimit:10;stroke-dasharray:none;stroke-opacity:1"
         d="M 5666.73,1134.14 H 1203.65" /></g></g></svg>